<?xml version="1.0" encoding="UTF-8" standalone="no"?>
<svg
   xmlns:dc="http://purl.org/dc/elements/1.1/"
   xmlns:cc="http://creativecommons.org/ns#"
   xmlns:rdf="http://www.w3.org/1999/02/22-rdf-syntax-ns#"
   xmlns:svg="http://www.w3.org/2000/svg"
   xmlns="http://www.w3.org/2000/svg"
   style="fill-rule:evenodd;stroke-width:28.22200012;stroke-linejoin:round"
   version="1.2"
   width="16mm"
   height="16mm"
   viewBox="0 0 16000 16000"
   preserveAspectRatio="xMidYMid"
   xml:space="preserve"
   id="svg3461"><metadata
     id="metadata3530"><rdf:RDF><cc:Work
         rdf:about=""><dc:format>image/svg+xml</dc:format><dc:type
           rdf:resource="http://purl.org/dc/dcmitype/StillImage" /><dc:title></dc:title></cc:Work></rdf:RDF></metadata><defs
     class="ClipPathGroup"
     id="defs3463"><clipPath
       clipPathUnits="userSpaceOnUse"
       id="presentation_clip_path-72"><rect
         id="rect5517"
         height="16000"
         width="16000"
         y="0"
         x="0" /></clipPath></defs><defs
     class="TextShapeIndex"
     id="defs3468" /><defs
     class="EmbeddedBulletChars"
     id="defs3472" /><defs
     class="TextEmbeddedBitmaps"
     id="defs3501" /><g
     transform="matrix(0.85083561,0,0,0.85083561,-1156.4756,-7375.671)"
     id="g5707"><g
       style="fill:#f8f8f8;fill-opacity:1;stroke:#3465a4;stroke-width:137.58918762;stroke-miterlimit:4;stroke-dasharray:none;stroke-opacity:1"
       transform="matrix(2.051195,0,0,2.051195,-11698.842,-4093.1791)"
       id="id3"><path
         d="m 10900,8000 c -731.681,-14.0941 -1534.4711,466.0093 -1900,1100 -316.3383,548.6722 0,1267 0,1900 -100,67 -200,133.333 -300,200 -100,66.667 -200,133 -300,200 -11,-100 -15.523,-200.792 -32,-300 -16.7997,-101.151 -56.5959,-198.099 -68,-300 -14.8293,-132.506 0,-400 0,-400 -133,33 -319.2454,30.56 -452.2935,110.459 C 7698.494,10600.065 7500,10900 7500,10900 7433,10700 7296.4777,10508.153 7343.8469,10310.459 7397.0185,10088.548 7800,9800 7800,9800 c 0,0 -279.2547,-56.5541 -400,0 -235.7626,110.4253 -333,400 -500,600 0,0 -125.357,-627.4461 0,-900 128.415,-279.2025 467,-400 700,-600 -133,-67 -254.9166,-165.7505 -400,-200 -162.2082,-38.2922 -500,0 -500,0 200,-233 327.5409,-557.8363 600,-700 296.9973,-154.9672 667,-67 1000,-100 -133,-67 -254.9166,-165.7505 -400,-200 -227.0914,-53.609 -700,0 -700,0 267,-167 493.3883,-430.1561 800,-500 294.307,-67.041 600,67 900,100 l -300,-300 -200,-200 c 0,0 715.3374,-112.014 1100,0 384.6626,112.014 1100,700 1100,700 33,-67 94.716,-125.6519 100,-200 7.472,-105.1441 -67,-200 -100,-300 l 400,400 c 33,-100 36.017,-216.2306 100,-300 72.952,-95.5119 200,-133 300,-200 33,100 83.115,195.9518 100,300 10.679,65.8058 -58.778,168.5428 0,200 211.928,113.4205 386.064,-290.4145 600,-400 253.48,-129.8413 567,-200 800,-300 67,133 165.75,254.9166 200,400 30.634,129.7665 0,400 0,400 167,-100 304.109,-315.251 500,-400 216.325,-93.5896 467,-33 700,-100 0,0 -289.746,247.0307 -400,400 -87.163,120.9328 -133,267 -200,400 200,0 495.333,-16.9063 700,100 185.334,105.8632 267,333 400,500 -133,33 -268.044,61.5744 -400,100 -202.411,58.9423 -400,133 -600,200 0,0 631.001,133.7492 900,300 200.5,123.916 500,500 500,500 0,0 -337.792,-38.2922 -500,0 -145.083,34.2495 -267,133 -400,200 0,0 248.117,312.687 300,500 62.285,224.867 0,700 0,700 0,0 -384.072,-294.393 -600,-400 -189.381,-92.623 -600,-200 -600,-200 33,200 100,300 100,600 -33,167 -67,333 -100,500 -67,-100 -133,-200 -200,-300 -200,-100 -267,0 -400,0 200,-600 305.713,-1345.3372 0,-1900 -361.581,-656.0261 -1151.065,-1185.5736 -1900,-1200 z"
         id="path3524"
         style="fill:#f8f8f8;fill-opacity:1;stroke:#3465a4;stroke-width:137.58918762;stroke-miterlimit:4;stroke-dasharray:none;stroke-opacity:1" /><path
         d="m 10900,8000 c -740.308,-14.2603 -1499.4888,298.9777 -1900,1100 -400.5112,801.0223 14.7908,1900 14.7908,1900 0,0 -210.6002,132.183 -314.7908,200 -100.7273,65.563 -200,133 -300,200 -11,-100 -15.523,-200.792 -32,-300 -16.7997,-101.151 -56.5959,-198.099 -68,-300 -14.8293,-132.506 0,-400 0,-400 -133,33 -280.4025,32.285 -400,100 -164.0865,92.904 -400,400 -400,400 -67,-200 -189.2728,-350.449 -140.8366,-555.627 C 7413.3166,10114.976 7800,9800 7800,9800 c 0,0 -323.6735,36.9397 -459.1634,118.3267 C 7154.2594,10030.401 7067,10200 6900,10400 c 0,0 -125.357,-627.4461 0,-900 128.415,-279.2025 467,-400 700,-600 -133,-67 -254.9166,-165.7505 -400,-200 -162.2082,-38.2922 -500,0 -500,0 200,-233 327.5409,-557.8363 600,-700 296.9973,-154.9672 667,-67 1000,-100 -133,-67 -254.9166,-165.7505 -400,-200 -227.0914,-53.609 -700,0 -700,0 267,-167 493.3883,-430.1561 800,-500 294.307,-67.041 600,67 900,100 l -300,-300 -200,-200 c 0,0 747.9559,-102.5155 1100,0 417.2812,121.5126 1100,700 1100,700 33,-67 100,-125.314 100,-200 0,-105.3043 -67,-200 -100,-300 l 400,400 c 33,-100 36.017,-216.2306 100,-300 72.952,-95.5119 200,-133 300,-200 33,100 83.115,195.9518 100,300 10.679,65.8058 0,200 0,200 233,-133 386.064,-290.4145 600,-400 253.48,-129.8413 567,-200 800,-300 67,133 165.75,254.9166 200,400 30.634,129.7665 0,400 0,400 167,-100 304.109,-315.251 500,-400 216.325,-93.5896 467,-33 700,-100 0,0 -289.746,247.0307 -400,400 -87.163,120.9328 -133,267 -200,400 200,0 495.333,-16.9063 700,100 185.334,105.8632 267,333 400,500 -133,33 -268.044,61.5744 -400,100 -202.411,58.9423 -400,133 -600,200 0,0 631.001,133.7492 900,300 200.5,123.916 500,500 500,500 0,0 -337.792,-38.2922 -500,0 -145.083,34.2495 -267,133 -400,200 0,0 248.117,312.687 300,500 62.285,224.867 0,700 0,700 0,0 -384.072,-294.393 -600,-400 -189.381,-92.623 -600,-200 -600,-200 33,200 103.269,397.268 100,600 -2.74,169.945 -67,333 -100,500 -67,-100 -94.036,-243.29 -200,-300 -117.557,-62.914 -267,0 -400,0 200,-600 350.571,-1198.8571 0,-1900 -350.571,-701.1429 -1159.692,-1185.7397 -1900,-1200 z"
         id="path3526"
         style="fill:#f8f8f8;fill-opacity:1;stroke:#3465a4;stroke-width:137.58918762;stroke-miterlimit:4;stroke-dasharray:none;stroke-opacity:1" /><path
         id="path4217"
         d="m 9103.5358,11073.954 c -258.9692,49.132 -502.2632,154.68 -703.5358,326.046 -62.5317,-305.702 -222.2235,-1194.324 -150.4677,-989.006 -330.2379,-1.478 -566.5512,243.11 -749.5323,489.006 -256.2549,-351.24 -136.903,-785.043 208.6625,-1019.9458 282.0768,-197.4522 -671.16,99.0737 -433.4866,82.9439 -172.0302,66.8689 -410.857,686.8419 -408.229,224.1009 -82.6505,-393.8794 -9.2693,-862.5899 393.0531,-1050.1813 165.2079,-110.7408 493.1345,-250.5422 144.5313,-349.1991 -218.4499,-135.8847 -687.6517,-109.189 -667.8274,-132.4153 220.8556,-306.4337 426.4731,-724.4945 859.7622,-740.5183 209.5737,-33.9802 645.1843,29.9979 654.1115,-41.2103 C 7952.2904,7631.2842 7557.3401,7662.28 7200,7700 c 341.165,-231.208 677.5702,-607.5932 1134.9982,-506.5219 148.5757,-4.9926 748.3201,232.049 438.9955,-19.4844 C 8649.3291,7049.3291 8524.6646,6924.6646 8400,6800 c 499.2794,-52.8633 1059.4514,-126.6213 1493.9767,187.9323 323.9893,82.2848 887.7303,895.0105 735.5703,463.0548 212.166,-124.6282 -176.549,-620.834 96.459,-324.9808 91.332,91.3312 182.663,182.6625 273.994,273.9937 -28.649,-225.2432 373.438,-674.9739 456.043,-351.5181 87.103,156.3162 -26.037,477.4843 205.919,248.3192 303.642,-258.322 668.996,-419.5651 1050.387,-525.9975 352.421,-189.8711 443.803,468.8109 387.651,729.1964 238.441,-169.6819 425.445,-468.2626 755.114,-455.1029 178.449,22.6428 622.791,-129.3216 286.231,97.7394 -173.494,145.1169 -226.459,766.2629 -362.24,656.8654 307.315,-13.9519 679.823,21.4437 840.52,327.5718 93.2,153.1999 282.75,329.6068 -20.016,320.8917 -78.657,-20.0503 -1578.113,543.2363 -771.97,258.1063 435.241,102.7606 914.076,211.6446 1197.549,590.3968 115.241,119.9116 253.841,259.0177 -14.36,189.1719 -267.723,-39.0569 -921.835,129.5525 -554.396,433.2025 224.809,277.9801 178.462,651.0051 143.568,981.1571 -334.245,-269.305 -708.366,-492.786 -1132.882,-581.775 -44.32,72.746 20.985,1087.288 20.742,708.111 -39.937,151.894 -74.342,536.082 -173.249,207.43 -82.636,-354.133 -697.2,191.363 -472.146,-294.214 151.084,-658.547 106.15,-1395.3102 -236.285,-1988.2489 -438.013,-655.327 -1300.036,-932.8884 -2058.971,-835.0897 -834.028,139.8026 -1581.9842,864.331 -1590.8608,1737.7433 -19.5896,409.8893 27.433,827.1903 147.1876,1219.9973 z"
         style="fill:#f8f8f8;fill-opacity:1;stroke:#3465a4;stroke-width:137.58918762;stroke-miterlimit:4;stroke-dasharray:none;stroke-opacity:1" /></g><g
       id="g3503"><g
         class="Master_Slide"
         id="id2"><g
           class="Background"
           id="bg-id2" /><g
           class="BackgroundObjects"
           id="bo-id2" /></g></g><g
       transform="matrix(0.93321446,-0.35931989,0.35931989,0.93321446,-5885.4445,2737.8357)"
       id="g5606"><g
         id="text4190"
         style="font-style:normal;font-weight:normal;font-size:1128.88891602px;line-height:125%;font-family:sans-serif;letter-spacing:0px;word-spacing:0px;fill:#3465a4;fill-opacity:1;stroke:none;stroke-width:1px;stroke-linecap:butt;stroke-linejoin:miter;stroke-opacity:1"><path
           id="path5614"
           style="font-style:normal;font-variant:normal;font-weight:normal;font-stretch:normal;font-size:5080.00048828px;font-family:'HanziPen TC';-inkscape-font-specification:'HanziPen TC';fill:#3465a4;fill-opacity:1"
           d="m 5922.3033,26602.833 c 0,-111.76 -50.8,-167.64 -152.4,-167.64 -55.88,0 -121.92,55.88 -198.12,167.64 -121.92,162.56 -218.44,269.24 -299.72,330.2 -111.7601,81.28 -259.0801,116.84 -436.8801,116.84 -254,0 -452.12,-76.2 -594.36,-238.76 -142.2401,-157.48 -213.3601,-370.84 -213.3601,-635 0,-60.96 5.08,-132.08 15.24,-208.28 101.6001,-40.64 254.0001,-86.36 457.2001,-137.16 335.28,-81.28 614.68,-147.32 838.2001,-193.04 50.8,66.04 116.84,96.52 198.12,96.52 40.64,0 111.76,-40.64 223.52,-121.92 106.68,-76.2 162.56,-152.4 162.56,-228.6 0,-96.52 -50.8,-147.32 -152.4,-147.32 -45.72,0 -132.08,10.16 -254,30.48 -355.6001,66.04 -812.8001,177.8 -1381.7602,335.28 157.4801,-365.76 264.1601,-609.6 325.1201,-731.52 40.64,-71.12 76.2,-142.24 116.84,-213.36 50.8,-101.6 81.28,-172.72 81.28,-213.36 0,-50.8 -25.4,-127 -66.04,-223.52 381,-132.08 695.9601,-198.12 939.8001,-198.12 30.48,0 66.04,10.16 116.84,25.4 45.72,20.32 86.36,25.4 116.84,25.4 101.6,0 157.48,-45.72 157.48,-137.16 0,-66.04 -25.4,-116.84 -76.2,-147.32 -86.36,-60.96 -198.12,-91.44 -330.2,-91.44 -421.6401,10.16 -883.9201,137.16 -1381.7602,386.08 -193.04,101.6 -289.56,187.96 -289.56,264.16 0,106.68 50.8,157.48 157.48,157.48 20.32,0 157.4801,-60.96 401.3201,-193.04 -452.1201,797.56 -675.6401,1402.08 -675.6401,1808.48 0,370.84 91.44,670.56 284.48,894.08 198.1201,243.84 472.4401,360.68 817.8801,360.68 233.68,0 441.9601,-55.88 635.0001,-167.64 193.04,-116.84 335.28,-284.48 426.72,-502.92 20.32,-40.64 30.48,-71.12 30.48,-101.6 z" /><path
           id="path5616"
           style="font-style:normal;font-variant:normal;font-weight:normal;font-stretch:normal;font-size:5080.00048828px;font-family:'HanziPen TC';-inkscape-font-specification:'HanziPen TC';fill:#3465a4;fill-opacity:1"
           d="m 8763.0555,25927.193 c 0,-40.64 -20.32,-76.2 -60.9601,-106.68 -40.64,-25.4 -86.36,-40.64 -127,-40.64 -213.36,-5.08 -370.84,-10.16 -477.52,-10.16 l -1153.1601,-45.72 c -20.32,0 -50.8,0 -101.6,-5.08 -50.8,0 -81.28,-5.08 -91.44,-5.08 -121.9201,0 -177.8001,60.96 -177.8001,177.8 0,142.24 66.04,213.36 203.2001,213.36 20.32,0 96.52,0 238.76,0 137.16,5.08 223.52,5.08 264.16,5.08 l 1153.1601,0 c 218.44,0 330.2001,-60.96 330.2001,-182.88 z m 137.16,934.72 c 0,-81.28 -66.04,-127 -198.1201,-127 -86.36,0 -375.92,-5.08 -873.76,-25.4 -497.8401,-10.16 -772.1601,-20.32 -833.1201,-20.32 -111.76,0 -218.44,5.08 -320.04,5.08 -162.5601,10.16 -238.7601,76.2 -238.7601,208.28 0,111.76 55.88,172.72 177.8,182.88 360.6801,-20.32 650.2401,-40.64 868.6801,-50.8 538.4801,-10.16 939.8001,-15.24 1214.1201,-25.4 132.0801,-5.08 203.2001,-55.88 203.2001,-147.32 z" /><path
           id="path5618"
           style="font-style:normal;font-variant:normal;font-weight:normal;font-stretch:normal;font-size:5080.00048828px;font-family:'HanziPen TC';-inkscape-font-specification:'HanziPen TC';fill:#3465a4;fill-opacity:1"
           d="m 12910.479,27146.393 c 0,-20.32 -25.4,-55.88 -66.04,-116.84 -71.12,-86.36 -121.92,-238.76 -162.56,-457.2 -35.56,-177.8 -50.8,-340.36 -50.8,-492.76 0,-233.68 -45.72,-355.6 -132.08,-355.6 -218.44,0 -589.28,370.84 -1112.52,1102.36 -81.28,-203.2 -121.92,-528.32 -121.92,-975.36 0,-223.52 -40.64,-340.36 -116.84,-340.36 -152.4,0 -543.56,340.36 -1183.6404,1010.92 35.56,-172.72 71.1204,-345.44 111.7604,-523.24 45.72,-213.36 71.12,-391.16 71.12,-523.24 0,-294.64 -60.96,-441.96 -177.8004,-441.96 -50.8,0 -96.52,20.32 -142.24,55.88 -60.96,45.72 -96.52,96.52 -106.68,157.48 55.88,132.08 86.36,238.76 86.36,330.2 0,132.08 -45.72,406.4 -127,812.8 -71.12,340.36 -106.68,594.36 -106.68,756.92 0,233.68 60.96,355.6 193.04,355.6 71.12,0 132.08,-91.44 172.72,-269.24 50.8,-213.36 187.9604,-447.04 421.6404,-711.2 182.88,-213.36 375.92,-391.16 574.04,-523.24 5.08,452.12 60.96,802.64 172.72,1051.56 66.04,157.48 137.16,233.68 218.44,233.68 76.2,0 162.56,-71.12 254,-218.44 213.36,-345.44 457.2,-650.24 721.36,-919.48 81.28,797.56 213.36,1193.8 391.16,1193.8 142.24,0 218.44,-60.96 218.44,-193.04 z" /><path
           id="path5620"
           style="font-style:normal;font-variant:normal;font-weight:normal;font-stretch:normal;font-size:5080.00048828px;font-family:'HanziPen TC';-inkscape-font-specification:'HanziPen TC';fill:#3465a4;fill-opacity:1"
           d="m 14790.079,26882.233 c 0,-40.64 -15.24,-76.2 -45.72,-116.84 -30.48,-40.64 -66.04,-60.96 -101.6,-60.96 -40.64,0 -91.44,35.56 -152.4,101.6 -81.28,76.2 -137.16,132.08 -167.64,167.64 -91.44,71.12 -208.28,106.68 -350.52,106.68 -111.76,0 -193.04,-40.64 -254,-127 -60.96,-86.36 -86.36,-198.12 -86.36,-330.2 0,-381 172.72,-701.04 528.32,-955.04 60.96,45.72 152.4,66.04 274.32,66.04 111.76,0 193.04,-66.04 238.76,-208.28 -5.08,-152.4 -91.44,-233.68 -259.08,-233.68 -152.4,0 -279.4,35.56 -391.16,101.6 -203.2,132.08 -370.84,309.88 -497.84,538.48 -132.08,233.68 -193.04,482.6 -193.04,741.68 0,213.36 60.96,386.08 193.04,528.32 127,137.16 294.64,208.28 497.84,208.28 182.88,0 365.76,-76.2 548.64,-228.6 142.24,-116.84 218.44,-218.44 218.44,-299.72 z" /></g><g
         id="text4194"
         style="font-style:normal;font-weight:normal;font-size:1128.88891602px;line-height:125%;font-family:sans-serif;letter-spacing:0px;word-spacing:0px;fill:#3465a4;fill-opacity:1;stroke:none;stroke-width:1px;stroke-linecap:butt;stroke-linejoin:miter;stroke-opacity:1"><path
           id="path5623"
           style="font-style:normal;font-variant:normal;font-weight:normal;font-stretch:normal;font-size:3386.66674805px;font-family:'HanziPen TC';-inkscape-font-specification:'HanziPen TC';fill:#3465a4;fill-opacity:1"
           d="m 16432.804,25248.442 c 0,-74.506 -37.254,-115.146 -108.374,-115.146 -3.386,0 -37.253,10.16 -104.986,30.48 -91.44,30.48 -233.68,44.026 -426.72,44.026 -189.654,0 -298.027,-30.48 -321.734,-98.213 10.16,-67.733 40.64,-145.627 94.827,-233.68 33.867,-54.187 125.307,-182.88 274.32,-386.08 169.333,-230.293 287.867,-409.787 355.6,-531.707 101.6,-182.88 152.4,-335.28 152.4,-463.973 0,-108.373 -33.867,-193.04 -98.213,-254 -64.347,-60.96 -149.014,-91.44 -257.387,-91.44 -162.56,0 -389.467,81.28 -680.72,237.067 -60.96,6.773 -104.987,23.706 -132.08,57.573 -60.96,40.64 -91.44,81.28 -91.44,125.307 0,88.053 33.867,132.08 101.6,132.08 27.093,0 60.96,-13.547 104.987,-44.027 284.48,-196.427 518.16,-294.64 694.266,-294.64 98.214,0 149.014,57.573 149.014,169.333 0,159.174 -128.694,409.787 -386.08,755.227 -101.6,132.08 -199.814,264.16 -298.027,399.627 -121.92,182.88 -182.88,328.506 -182.88,430.106 0,199.814 145.627,298.027 440.267,298.027 203.2,0 409.786,-16.933 619.76,-57.573 67.733,-13.547 101.6,-47.414 101.6,-108.374 z" /></g></g><g
       transform="translate(4929.0608,9561.9715)"
       id="id2-4"
       class="Master_Slide"
       style="fill-rule:evenodd;stroke-width:28.22200012;stroke-linejoin:round"><g
         id="bg-id2-1"
         class="Background" /><g
         id="bo-id2-4"
         class="BackgroundObjects" /></g><g
       transform="translate(4214.3152,9219.0268)"
       id="g5577"
       style="fill-rule:evenodd;stroke-width:28.22200012;stroke-linejoin:round"><g
         id="g5554"><g
           id="id2-2"
           class="Master_Slide"><g
             id="bg-id2-15"
             class="Background" /><g
             id="bo-id2-7"
             class="BackgroundObjects" /></g></g><g
         class="SlideGroup"
         id="g5559"><g
           id="g5561"><g
             id="id1"
             class="Slide"
             clip-path="url(#presentation_clip_path-72)"><g
               class="Page"
               id="g5564"><g
                 class="com.sun.star.drawing.ClosedBezierShape"
                 id="g5566"><g
                   id="id3-4"><path
                     style="fill:#3465a4;stroke:none"
                     d="m 6499,11698 c -1183,0 -2193,-418 -3029,-1254 -836,-836 -1254,-1846 -1254,-3029 0,-1183 418,-2193 1254,-3029 836,-836 1846,-1254 3029,-1254 1183,0 2193,418 3029,1254 836,836 1254,1846 1254,3029 0,1183 -418,2193 -1254,3029 -836,836 -1846,1254 -3029,1254 z m 0,-546 c 1033,0 1914,-364 2643,-1094 730,-729 1094,-1610 1094,-2643 0,-1033 -364,-1915 -1094,-2646 -729,-731 -1610,-1097 -2643,-1097 -1033,0 -1914,366 -2643,1097 -730,731 -1094,1613 -1094,2646 0,1033 364,1914 1094,2643 729,730 1610,1094 2643,1094 z M 5137,6731 c -187,0 -347,-66 -479,-198 -132,-132 -199,-292 -199,-480 0,-187 67,-347 199,-479 132,-132 292,-199 479,-199 192,0 353,67 486,199 132,132 198,292 198,479 0,188 -67,348 -201,480 -134,132 -295,198 -483,198 z m 2724,0 c -188,0 -349,-66 -483,-198 -134,-132 -201,-292 -201,-480 0,-187 67,-347 201,-479 134,-132 295,-199 483,-199 187,0 347,67 479,199 132,132 199,292 199,479 0,188 -67,348 -199,480 -132,132 -292,198 -479,198 z"
                     id="path5569" /></g></g></g></g></g></g></g><g
       style="stroke:#c8c8c8;stroke-opacity:1"
       id="g5598"><path
         style="fill:none;fill-rule:evenodd;stroke:#c8c8c8;stroke-width:57.88928223px;stroke-linecap:butt;stroke-linejoin:miter;stroke-opacity:1"
         d="m 8324.8266,14150.311 c 124.4187,-126.179 245.3762,-278.766 426.5839,-306.094 169.6704,-24.412 297.667,-173.327 448.5078,-217.671 87.8198,-52.581 260.9407,-92.187 387.9486,-113.331 162.4813,-59.428 327.3871,-77.975 500.2561,-60.688 199.101,2.541 403.314,-30.255 556.518,93.688 129.471,63.263 301.429,10.142 447.338,27.636 169.817,0.05 339.631,0.177 509.448,0.02 173.44,-59.298 370.895,-32.408 549.244,2.955 102.014,22.637 106.463,26.341 104.578,55.096 116.66,59.029 254.229,119.503 356.57,198.603 49.858,56.396 188.666,109.809 159.958,140.557 123.283,44.833 114.842,145.774 225.24,209.567"
         id="path4181" /><path
         style="fill:none;fill-rule:evenodd;stroke:#c8c8c8;stroke-width:57.88928223px;stroke-linecap:butt;stroke-linejoin:miter;stroke-opacity:1"
         d="m 8142.7931,14605.395 c 83.6781,-23.973 200.166,-63.347 197.7577,-81.151 137.6286,-54.085 285.0413,-136.854 378.6812,-222.238 93.4937,-52.293 213.4525,-58.135 288.356,-89.591 123.9106,-73.781 281.0014,-70.561 418.7432,-89.429 80.4294,-52.5 227.1842,-14.172 334.4822,-63.692 178.6714,0.414 357.5926,-0.615 536.0406,0 110.254,25.948 142.351,61.018 242.548,60.678 384.316,0.1 768.964,-0.135 1153.042,0 126.668,79.429 289.543,58.098 409.283,137.228 135.968,20.299 246.509,95.559 387.645,138.015 127.388,51.702 200.577,132.963 325.611,149.502 47.91,59.351 97.247,49.342 152.404,74.861 21.187,40.743 69.8,57.659 150.984,46.494"
         id="path4183" /></g><ellipse
       ry="1198.3861"
       rx="849.48901"
       cy="19378.193"
       cx="10755.064"
       id="path4188"
       style="fill:#ff0000;fill-opacity:1;stroke:#808080;stroke-width:4.10238981;stroke-miterlimit:4;stroke-dasharray:none;stroke-opacity:1" /><path
       id="path4179"
       d="m 7748.3876,18488.773 c 116.0017,344.031 424.7447,0 424.7447,0 0,0 -104.8528,246.051 -30.3392,303.388 74.5135,57.338 149.7142,-133.85 242.7113,-91.016 92.9971,42.834 -7.2317,276.188 121.3557,333.728 128.5873,57.54 325.8819,-231.155 455.0826,-182.033 129.2007,49.122 21.6729,248.088 151.6961,303.388 130.0232,55.3 356.4095,-215.544 485.4215,-151.694 129.0119,63.85 -3.6368,279.615 121.3548,333.727 124.9917,54.113 305.7309,-219.326 424.7449,-182.033 119.015,37.293 39.654,205.269 151.694,242.712 112.041,37.442 281.391,-166.073 394.406,-151.696 113.015,14.377 108.668,169.488 212.373,151.696 103.704,-17.792 59.86,-257.115 212.372,-303.39 152.513,-46.275 399.064,272.234 546.1,212.372 147.036,-59.862 21.216,-310.067 151.694,-333.727 130.479,-23.661 168.756,330.023 303.39,303.388 134.635,-26.635 33.219,-303.197 151.694,-364.067 118.475,-60.869 287.02,155.222 394.404,91.018 107.384,-64.204 -9.999,-262.541 91.018,-333.728 101.017,-71.189 316.76,110.663 394.406,30.339 77.646,-80.323 -104.716,-189.951 -30.34,-273.05 74.377,-83.099 290.729,280.265 394.406,0 103.678,-280.265 -558.807,-763.007 -1061.86,-910.167 -503.054,-147.161 -1169.85,262.027 -1729.318,242.711 -559.467,-19.316 -1030.237,-456.696 -1577.623,-333.728 -547.3852,122.969 -1511.59,717.83 -1395.5884,1061.862 z"
       style="fill:#f8f8f8;fill-opacity:1;fill-rule:evenodd;stroke:#3465a4;stroke-width:225.77778625;stroke-linecap:butt;stroke-linejoin:miter;stroke-miterlimit:4;stroke-dasharray:none;stroke-opacity:1" /></g></svg>