<svg version="1.2" baseProfile="tiny" width="16mm" height="16mm" viewBox="0 0 16000 16000" preserveAspectRatio="xMidYMid" fill-rule="evenodd" stroke-width="28.222" stroke-linejoin="round" xmlns="http://www.w3.org/2000/svg" xmlns:ooo="http://xml.openoffice.org/svg/export" xmlns:xlink="http://www.w3.org/1999/xlink" xml:space="preserve">
 <defs class="ClipPathGroup">
  <clipPath id="presentation_clip_path" clipPathUnits="userSpaceOnUse">
   <rect x="0" y="0" width="16000" height="16000"/>
  </clipPath>
 </defs>
 <defs class="TextShapeIndex">
  <g ooo:slide="id1" ooo:id-list="id3 id4"/>
 </defs>
 <defs class="EmbeddedBulletChars">
  <g id="bullet-char-template(57356)" transform="scale(0.00048828125,-0.00048828125)">
   <path d="M 580,1141 L 1163,571 580,0 -4,571 580,1141 Z"/>
  </g>
  <g id="bullet-char-template(57354)" transform="scale(0.00048828125,-0.00048828125)">
   <path d="M 8,1128 L 1137,1128 1137,0 8,0 8,1128 Z"/>
  </g>
  <g id="bullet-char-template(10146)" transform="scale(0.00048828125,-0.00048828125)">
   <path d="M 174,0 L 602,739 174,1481 1456,739 174,0 Z M 1358,739 L 309,1346 659,739 1358,739 Z"/>
  </g>
  <g id="bullet-char-template(10132)" transform="scale(0.00048828125,-0.00048828125)">
   <path d="M 2015,739 L 1276,0 717,0 1260,543 174,543 174,936 1260,936 717,1481 1274,1481 2015,739 Z"/>
  </g>
  <g id="bullet-char-template(10007)" transform="scale(0.00048828125,-0.00048828125)">
   <path d="M 0,-2 C -7,14 -16,27 -25,37 L 356,567 C 262,823 215,952 215,954 215,979 228,992 255,992 264,992 276,990 289,987 310,991 331,999 354,1012 L 381,999 492,748 772,1049 836,1024 860,1049 C 881,1039 901,1025 922,1006 886,937 835,863 770,784 769,783 710,716 594,584 L 774,223 C 774,196 753,168 711,139 L 727,119 C 717,90 699,76 672,76 641,76 570,178 457,381 L 164,-76 C 142,-110 111,-127 72,-127 30,-127 9,-110 8,-76 1,-67 -2,-52 -2,-32 -2,-23 -1,-13 0,-2 Z"/>
  </g>
  <g id="bullet-char-template(10004)" transform="scale(0.00048828125,-0.00048828125)">
   <path d="M 285,-33 C 182,-33 111,30 74,156 52,228 41,333 41,471 41,549 55,616 82,672 116,743 169,778 240,778 293,778 328,747 346,684 L 369,508 C 377,444 397,411 428,410 L 1163,1116 C 1174,1127 1196,1133 1229,1133 1271,1133 1292,1118 1292,1087 L 1292,965 C 1292,929 1282,901 1262,881 L 442,47 C 390,-6 338,-33 285,-33 Z"/>
  </g>
  <g id="bullet-char-template(9679)" transform="scale(0.00048828125,-0.00048828125)">
   <path d="M 813,0 C 632,0 489,54 383,161 276,268 223,411 223,592 223,773 276,916 383,1023 489,1130 632,1184 813,1184 992,1184 1136,1130 1245,1023 1353,916 1407,772 1407,592 1407,412 1353,268 1245,161 1136,54 992,0 813,0 Z"/>
  </g>
  <g id="bullet-char-template(8226)" transform="scale(0.00048828125,-0.00048828125)">
   <path d="M 346,457 C 273,457 209,483 155,535 101,586 74,649 74,723 74,796 101,859 155,911 209,963 273,989 346,989 419,989 480,963 531,910 582,859 608,796 608,723 608,648 583,586 532,535 482,483 420,457 346,457 Z"/>
  </g>
  <g id="bullet-char-template(8211)" transform="scale(0.00048828125,-0.00048828125)">
   <path d="M -4,459 L 1135,459 1135,606 -4,606 -4,459 Z"/>
  </g>
 </defs>
 <defs class="TextEmbeddedBitmaps"/>
 <g>
  <g id="id2" class="Master_Slide">
   <g id="bg-id2" class="Background"/>
   <g id="bo-id2" class="BackgroundObjects"/>
  </g>
 </g>
 <g class="SlideGroup">
  <g>
   <g id="id1" class="Slide" clip-path="url(#presentation_clip_path)">
    <g class="Page">
     <g class="com.sun.star.drawing.ClosedBezierShape">
      <g id="id3">
       <path fill="rgb(52,101,164)" stroke="none" d="M 6500,11700 C 5317,11700 4307,11282 3471,10446 2635,9610 2217,8600 2217,7417 2217,6234 2635,5224 3471,4388 4307,3552 5317,3134 6500,3134 7683,3134 8693,3552 9529,4388 10365,5224 10783,6234 10783,7417 10783,8600 10365,9610 9529,10446 8693,11282 7683,11700 6500,11700 Z M 6500,11154 C 7533,11154 8414,10790 9143,10060 9873,9331 10237,8450 10237,7417 10237,6384 9873,5502 9143,4771 8414,4040 7533,3674 6500,3674 5467,3674 4586,4040 3857,4771 3127,5502 2763,6384 2763,7417 2763,8450 3127,9331 3857,10060 4586,10790 5467,11154 6500,11154 Z M 3986,7654 L 4323,7654 C 4591,8834 5317,9423 6500,9423 7683,9423 8409,8834 8677,7654 L 9019,7654 C 8935,8418 8669,9017 8223,9451 7776,9885 7202,10101 6500,10101 5798,10101 5225,9885 4780,9451 4336,9017 4071,8418 3986,7654 Z M 5138,6733 C 4951,6733 4791,6667 4659,6535 4527,6403 4460,6243 4460,6055 4460,5868 4527,5708 4659,5576 4791,5444 4951,5377 5138,5377 5330,5377 5491,5444 5624,5576 5756,5708 5822,5868 5822,6055 5822,6243 5755,6403 5621,6535 5487,6667 5326,6733 5138,6733 Z M 7862,6733 C 7674,6733 7513,6667 7379,6535 7245,6403 7178,6243 7178,6055 7178,5868 7245,5708 7379,5576 7513,5444 7674,5377 7862,5377 8049,5377 8209,5444 8341,5576 8473,5708 8540,5868 8540,6055 8540,6243 8473,6403 8341,6535 8209,6667 8049,6733 7862,6733 Z"/>
      </g>
     </g>
     <g class="com.sun.star.drawing.ClosedBezierShape">
      <g id="id4">
       <path fill="rgb(52,101,164)" stroke="none" d="M 13287,12029 C 13234,12247 13187,12416 13148,12535 13108,12654 13048,12796 12969,12962 12890,13127 12787,13266 12661,13378 12536,13491 12387,13583 12215,13656 12017,13735 11816,13831 11615,13944 11413,14056 11256,14142 11143,14202 11031,14261 10932,14291 10846,14291 10760,14291 10662,14266 10553,14217 10444,14167 10289,14088 10087,13979 9885,13869 9688,13775 9496,13696 9358,13636 9243,13570 9154,13497 9065,13425 9000,13340 8961,13244 8921,13148 8891,13059 8871,12976 8851,12894 8832,12780 8812,12634 8792,12489 8769,12366 8742,12267 L 10776,13388 13287,12029 Z M 7314,10610 L 10409,8943 C 10542,8877 10687,8844 10846,8844 11005,8844 11150,8877 11282,8943 L 14378,10610 C 14497,10670 14557,10749 14557,10848 14557,10941 14497,11017 14378,11076 L 11282,12733 C 11150,12800 11005,12833 10846,12833 10687,12833 10542,12800 10409,12733 L 8405,11662 10578,11176 C 10657,11195 10747,11205 10846,11205 11038,11205 11203,11166 11342,11086 11481,11007 11550,10914 11550,10809 11550,10696 11481,10600 11342,10521 11203,10441 11038,10402 10846,10402 10753,10402 10667,10428 10588,10481 10508,10534 10457,10575 10434,10605 10411,10635 10370,10696 10310,10789 L 7889,11384 7314,11076 C 7195,11017 7135,10941 7135,10848 7135,10749 7195,10670 7314,10610 Z M 8296,13726 L 8296,13735 C 8296,13782 8251,13838 8162,13904 8073,13970 7988,14003 7909,14003 7810,14003 7750,13941 7730,13815 7684,13444 7661,13104 7661,12793 7661,12489 7681,12221 7720,11989 7760,11758 7800,11602 7839,11523 L 7899,11404 8385,11662 C 8253,11794 8187,12108 8187,12604 8187,12922 8223,13296 8296,13726 Z"/>
      </g>
     </g>
    </g>
   </g>
  </g>
 </g>
</svg>