<svg version="1.2" baseProfile="tiny" width="16mm" height="16mm" viewBox="0 0 16000 16000" preserveAspectRatio="xMidYMid" fill-rule="evenodd" stroke-width="28.222" stroke-linejoin="round" xmlns="http://www.w3.org/2000/svg" xmlns:ooo="http://xml.openoffice.org/svg/export" xmlns:xlink="http://www.w3.org/1999/xlink" xml:space="preserve">
 <defs class="ClipPathGroup">
  <clipPath id="presentation_clip_path" clipPathUnits="userSpaceOnUse">
   <rect x="0" y="0" width="16000" height="16000"/>
  </clipPath>
 </defs>
 <defs class="TextShapeIndex">
  <g ooo:slide="id1" ooo:id-list="id3 id4 id5"/>
 </defs>
 <defs class="EmbeddedBulletChars">
  <g id="bullet-char-template(57356)" transform="scale(0.00048828125,-0.00048828125)">
   <path d="M 580,1141 L 1163,571 580,0 -4,571 580,1141 Z"/>
  </g>
  <g id="bullet-char-template(57354)" transform="scale(0.00048828125,-0.00048828125)">
   <path d="M 8,1128 L 1137,1128 1137,0 8,0 8,1128 Z"/>
  </g>
  <g id="bullet-char-template(10146)" transform="scale(0.00048828125,-0.00048828125)">
   <path d="M 174,0 L 602,739 174,1481 1456,739 174,0 Z M 1358,739 L 309,1346 659,739 1358,739 Z"/>
  </g>
  <g id="bullet-char-template(10132)" transform="scale(0.00048828125,-0.00048828125)">
   <path d="M 2015,739 L 1276,0 717,0 1260,543 174,543 174,936 1260,936 717,1481 1274,1481 2015,739 Z"/>
  </g>
  <g id="bullet-char-template(10007)" transform="scale(0.00048828125,-0.00048828125)">
   <path d="M 0,-2 C -7,14 -16,27 -25,37 L 356,567 C 262,823 215,952 215,954 215,979 228,992 255,992 264,992 276,990 289,987 310,991 331,999 354,1012 L 381,999 492,748 772,1049 836,1024 860,1049 C 881,1039 901,1025 922,1006 886,937 835,863 770,784 769,783 710,716 594,584 L 774,223 C 774,196 753,168 711,139 L 727,119 C 717,90 699,76 672,76 641,76 570,178 457,381 L 164,-76 C 142,-110 111,-127 72,-127 30,-127 9,-110 8,-76 1,-67 -2,-52 -2,-32 -2,-23 -1,-13 0,-2 Z"/>
  </g>
  <g id="bullet-char-template(10004)" transform="scale(0.00048828125,-0.00048828125)">
   <path d="M 285,-33 C 182,-33 111,30 74,156 52,228 41,333 41,471 41,549 55,616 82,672 116,743 169,778 240,778 293,778 328,747 346,684 L 369,508 C 377,444 397,411 428,410 L 1163,1116 C 1174,1127 1196,1133 1229,1133 1271,1133 1292,1118 1292,1087 L 1292,965 C 1292,929 1282,901 1262,881 L 442,47 C 390,-6 338,-33 285,-33 Z"/>
  </g>
  <g id="bullet-char-template(9679)" transform="scale(0.00048828125,-0.00048828125)">
   <path d="M 813,0 C 632,0 489,54 383,161 276,268 223,411 223,592 223,773 276,916 383,1023 489,1130 632,1184 813,1184 992,1184 1136,1130 1245,1023 1353,916 1407,772 1407,592 1407,412 1353,268 1245,161 1136,54 992,0 813,0 Z"/>
  </g>
  <g id="bullet-char-template(8226)" transform="scale(0.00048828125,-0.00048828125)">
   <path d="M 346,457 C 273,457 209,483 155,535 101,586 74,649 74,723 74,796 101,859 155,911 209,963 273,989 346,989 419,989 480,963 531,910 582,859 608,796 608,723 608,648 583,586 532,535 482,483 420,457 346,457 Z"/>
  </g>
  <g id="bullet-char-template(8211)" transform="scale(0.00048828125,-0.00048828125)">
   <path d="M -4,459 L 1135,459 1135,606 -4,606 -4,459 Z"/>
  </g>
 </defs>
 <defs class="TextEmbeddedBitmaps"/>
 <g>
  <g id="id2" class="Master_Slide">
   <g id="bg-id2" class="Background"/>
   <g id="bo-id2" class="BackgroundObjects"/>
  </g>
 </g>
 <g class="SlideGroup">
  <g>
   <g id="id1" class="Slide" clip-path="url(#presentation_clip_path)">
    <g class="Page">
     <g class="com.sun.star.drawing.ClosedBezierShape">
      <g id="id3">
       <path fill="rgb(52,101,164)" stroke="none" d="M 6499,11698 C 5316,11698 4306,11280 3470,10444 2634,9608 2216,8598 2216,7415 2216,6232 2634,5222 3470,4386 4306,3550 5316,3132 6499,3132 7682,3132 8692,3550 9528,4386 10364,5222 10782,6232 10782,7415 10782,8598 10364,9608 9528,10444 8692,11280 7682,11698 6499,11698 Z M 6499,11152 C 7532,11152 8413,10788 9142,10058 9872,9329 10236,8448 10236,7415 10236,6382 9872,5500 9142,4769 8413,4038 7532,3672 6499,3672 5466,3672 4585,4038 3856,4769 3126,5500 2762,6382 2762,7415 2762,8448 3126,9329 3856,10058 4585,10788 5466,11152 6499,11152 Z M 3985,7652 L 4322,7652 C 4590,8832 5316,9421 6499,9421 7682,9421 8408,8832 8676,7652 L 9018,7652 C 8934,8416 8668,9015 8222,9449 7775,9883 7201,10099 6499,10099 5797,10099 5224,9883 4779,9449 4335,9015 4070,8416 3985,7652 Z M 5137,6731 C 4950,6731 4790,6665 4658,6533 4526,6401 4459,6241 4459,6053 4459,5866 4526,5706 4658,5574 4790,5442 4950,5375 5137,5375 5329,5375 5490,5442 5623,5574 5755,5706 5821,5866 5821,6053 5821,6241 5754,6401 5620,6533 5486,6665 5325,6731 5137,6731 Z M 7861,6731 C 7673,6731 7512,6665 7378,6533 7244,6401 7177,6241 7177,6053 7177,5866 7244,5706 7378,5574 7512,5442 7673,5375 7861,5375 8048,5375 8208,5442 8340,5574 8472,5706 8539,5866 8539,6053 8539,6241 8472,6401 8340,6533 8208,6665 8048,6731 7861,6731 Z"/>
      </g>
     </g>
     <g class="Group">
      <g class="com.sun.star.drawing.CustomShape">
       <g id="id4">
        <path fill="rgb(255,255,255)" stroke="none" d="M 2750,11281 L 2750,4887 6273,7019 6273,13412 2750,11281 Z M 2750,13412 L 2750,13412 Z M 6273,4887 L 6273,4887 Z"/>
        <path fill="none" stroke="rgb(52,101,164)" stroke-width="212" stroke-linejoin="round" d="M 2750,11281 L 2750,4887 6273,7019 6273,13412 2750,11281 Z"/>
       </g>
      </g>
      <g class="com.sun.star.drawing.CustomShape">
       <g id="id5">
        <path fill="rgb(255,255,255)" stroke="none" d="M 10250,11281 L 10250,4887 6727,7019 6727,13412 10250,11281 Z M 10250,13412 L 10250,13412 Z M 6727,4887 L 6727,4887 Z"/>
        <path fill="none" stroke="rgb(52,101,164)" stroke-width="212" stroke-linejoin="round" d="M 10250,11281 L 10250,4887 6727,7019 6727,13412 10250,11281 Z"/>
       </g>
      </g>
     </g>
    </g>
   </g>
  </g>
 </g>
</svg>