<svg version="1.2" baseProfile="tiny" width="16mm" height="16mm" viewBox="0 0 16000 16000" preserveAspectRatio="xMidYMid" fill-rule="evenodd" stroke-width="28.222" stroke-linejoin="round" xmlns="http://www.w3.org/2000/svg" xmlns:ooo="http://xml.openoffice.org/svg/export" xmlns:xlink="http://www.w3.org/1999/xlink" xml:space="preserve">
 <defs class="ClipPathGroup">
  <clipPath id="presentation_clip_path" clipPathUnits="userSpaceOnUse">
   <rect x="0" y="0" width="16000" height="16000"/>
  </clipPath>
 </defs>
 <defs class="TextShapeIndex">
  <g ooo:slide="id1" ooo:id-list="id3 id4 id5 id6 id7 id8 id9"/>
 </defs>
 <defs class="EmbeddedBulletChars">
  <g id="bullet-char-template(57356)" transform="scale(0.00048828125,-0.00048828125)">
   <path d="M 580,1141 L 1163,571 580,0 -4,571 580,1141 Z"/>
  </g>
  <g id="bullet-char-template(57354)" transform="scale(0.00048828125,-0.00048828125)">
   <path d="M 8,1128 L 1137,1128 1137,0 8,0 8,1128 Z"/>
  </g>
  <g id="bullet-char-template(10146)" transform="scale(0.00048828125,-0.00048828125)">
   <path d="M 174,0 L 602,739 174,1481 1456,739 174,0 Z M 1358,739 L 309,1346 659,739 1358,739 Z"/>
  </g>
  <g id="bullet-char-template(10132)" transform="scale(0.00048828125,-0.00048828125)">
   <path d="M 2015,739 L 1276,0 717,0 1260,543 174,543 174,936 1260,936 717,1481 1274,1481 2015,739 Z"/>
  </g>
  <g id="bullet-char-template(10007)" transform="scale(0.00048828125,-0.00048828125)">
   <path d="M 0,-2 C -7,14 -16,27 -25,37 L 356,567 C 262,823 215,952 215,954 215,979 228,992 255,992 264,992 276,990 289,987 310,991 331,999 354,1012 L 381,999 492,748 772,1049 836,1024 860,1049 C 881,1039 901,1025 922,1006 886,937 835,863 770,784 769,783 710,716 594,584 L 774,223 C 774,196 753,168 711,139 L 727,119 C 717,90 699,76 672,76 641,76 570,178 457,381 L 164,-76 C 142,-110 111,-127 72,-127 30,-127 9,-110 8,-76 1,-67 -2,-52 -2,-32 -2,-23 -1,-13 0,-2 Z"/>
  </g>
  <g id="bullet-char-template(10004)" transform="scale(0.00048828125,-0.00048828125)">
   <path d="M 285,-33 C 182,-33 111,30 74,156 52,228 41,333 41,471 41,549 55,616 82,672 116,743 169,778 240,778 293,778 328,747 346,684 L 369,508 C 377,444 397,411 428,410 L 1163,1116 C 1174,1127 1196,1133 1229,1133 1271,1133 1292,1118 1292,1087 L 1292,965 C 1292,929 1282,901 1262,881 L 442,47 C 390,-6 338,-33 285,-33 Z"/>
  </g>
  <g id="bullet-char-template(9679)" transform="scale(0.00048828125,-0.00048828125)">
   <path d="M 813,0 C 632,0 489,54 383,161 276,268 223,411 223,592 223,773 276,916 383,1023 489,1130 632,1184 813,1184 992,1184 1136,1130 1245,1023 1353,916 1407,772 1407,592 1407,412 1353,268 1245,161 1136,54 992,0 813,0 Z"/>
  </g>
  <g id="bullet-char-template(8226)" transform="scale(0.00048828125,-0.00048828125)">
   <path d="M 346,457 C 273,457 209,483 155,535 101,586 74,649 74,723 74,796 101,859 155,911 209,963 273,989 346,989 419,989 480,963 531,910 582,859 608,796 608,723 608,648 583,586 532,535 482,483 420,457 346,457 Z"/>
  </g>
  <g id="bullet-char-template(8211)" transform="scale(0.00048828125,-0.00048828125)">
   <path d="M -4,459 L 1135,459 1135,606 -4,606 -4,459 Z"/>
  </g>
 </defs>
 <defs class="TextEmbeddedBitmaps"/>
 <g>
  <g id="id2" class="Master_Slide">
   <g id="bg-id2" class="Background"/>
   <g id="bo-id2" class="BackgroundObjects"/>
  </g>
 </g>
 <g class="SlideGroup">
  <g>
   <g id="id1" class="Slide" clip-path="url(#presentation_clip_path)">
    <g class="Page">
     <g class="com.sun.star.drawing.ClosedBezierShape">
      <g id="id3">
       <path fill="rgb(52,101,164)" stroke="none" d="M 6499,11698 C 5316,11698 4306,11280 3470,10444 2634,9608 2216,8598 2216,7415 2216,6232 2634,5222 3470,4386 4306,3550 5316,3132 6499,3132 7682,3132 8692,3550 9528,4386 10364,5222 10782,6232 10782,7415 10782,8598 10364,9608 9528,10444 8692,11280 7682,11698 6499,11698 Z M 6499,11152 C 7532,11152 8413,10788 9142,10058 9872,9329 10236,8448 10236,7415 10236,6382 9872,5500 9142,4769 8413,4038 7532,3672 6499,3672 5466,3672 4585,4038 3856,4769 3126,5500 2762,6382 2762,7415 2762,8448 3126,9329 3856,10058 4585,10788 5466,11152 6499,11152 Z M 5137,6731 C 4950,6731 4790,6665 4658,6533 4526,6401 4459,6241 4459,6053 4459,5866 4526,5706 4658,5574 4790,5442 4950,5375 5137,5375 5329,5375 5490,5442 5623,5574 5755,5706 5821,5866 5821,6053 5821,6241 5754,6401 5620,6533 5486,6665 5325,6731 5137,6731 Z M 7861,6731 C 7673,6731 7512,6665 7378,6533 7244,6401 7177,6241 7177,6053 7177,5866 7244,5706 7378,5574 7512,5442 7673,5375 7861,5375 8048,5375 8208,5442 8340,5574 8472,5706 8539,5866 8539,6053 8539,6241 8472,6401 8340,6533 8208,6665 8048,6731 7861,6731 Z"/>
      </g>
     </g>
     <g class="Group">
      <g class="Group">
       <g class="com.sun.star.drawing.EllipseShape">
        <g id="id4">
         <path fill="rgb(255,255,255)" stroke="none" d="M 8709,11321 C 8379,11513 8054,11600 7672,11600 7290,11600 6965,11513 6634,11322 6303,11131 6065,10893 5874,10562 5683,10231 5596,9907 5596,9525 5596,9142 5683,8818 5874,8487 6065,8156 6302,7918 6633,7727 6964,7536 7289,7449 7671,7449 8053,7449 8378,7536 8709,7727 9040,7918 9277,8155 9469,8486 9660,8817 9747,9142 9747,9524 9747,9906 9660,10231 9469,10562 9278,10893 9040,11130 8709,11321 L 8709,11321 Z"/>
         <path fill="none" stroke="rgb(52,101,164)" stroke-width="247" stroke-linejoin="round" d="M 8709,11321 C 8379,11513 8054,11600 7672,11600 7290,11600 6965,11513 6634,11322 6303,11131 6065,10893 5874,10562 5683,10231 5596,9907 5596,9525 5596,9142 5683,8818 5874,8487 6065,8156 6302,7918 6633,7727 6964,7536 7289,7449 7671,7449 8053,7449 8378,7536 8709,7727 9040,7918 9277,8155 9469,8486 9660,8817 9747,9142 9747,9524 9747,9906 9660,10231 9469,10562 9278,10893 9040,11130 8709,11321 L 8709,11321 Z"/>
        </g>
       </g>
       <g class="com.sun.star.drawing.EllipseShape">
        <g id="id5">
         <path fill="rgb(52,101,164)" stroke="none" d="M 8140,10333 C 7991,10419 7845,10458 7673,10458 7501,10458 7355,10419 7206,10333 7057,10247 6950,10140 6864,9991 6778,9842 6739,9696 6739,9524 6739,9352 6778,9206 6864,9057 6950,8908 7057,8801 7206,8715 7355,8629 7501,8590 7673,8590 7845,8590 7991,8629 8140,8715 8289,8801 8396,8908 8482,9057 8568,9206 8607,9352 8607,9524 8607,9696 8568,9842 8482,9991 8396,10140 8289,10247 8140,10333 L 8140,10333 Z"/>
         <path fill="none" stroke="rgb(52,101,164)" d="M 8140,10333 C 7991,10419 7845,10458 7673,10458 7501,10458 7355,10419 7206,10333 7057,10247 6950,10140 6864,9991 6778,9842 6739,9696 6739,9524 6739,9352 6778,9206 6864,9057 6950,8908 7057,8801 7206,8715 7355,8629 7501,8590 7673,8590 7845,8590 7991,8629 8140,8715 8289,8801 8396,8908 8482,9057 8568,9206 8607,9352 8607,9524 8607,9696 8568,9842 8482,9991 8396,10140 8289,10247 8140,10333 L 8140,10333 Z"/>
        </g>
       </g>
       <g class="com.sun.star.drawing.EllipseShape">
        <g id="id6">
         <path fill="none" stroke="rgb(52,101,164)" stroke-width="212" stroke-linejoin="round" d="M 9378,12374 C 9115,12526 8858,12597 8556,12600 8255,12603 7999,12538 7739,12392 7479,12245 7294,12062 7146,11805 6997,11549 6931,11296 6935,10998 6938,10700 7009,10446 7163,10186 7316,9927 7506,9739 7769,9588 8032,9436 8289,9365 8591,9362 8893,9359 9148,9424 9408,9570 9668,9716 9854,9900 10002,10156 10150,10413 10216,10666 10213,10964 10209,11262 10138,11516 9984,11775 9831,12035 9641,12223 9378,12374 L 9378,12374 Z"/>
        </g>
       </g>
      </g>
      <g class="com.sun.star.drawing.EllipseShape">
       <g id="id7">
        <path fill="rgb(255,255,255)" stroke="none" d="M 8701,11313 C 8371,11505 8046,11592 7664,11592 7282,11592 6957,11505 6626,11314 6295,11123 6057,10885 5866,10554 5675,10223 5588,9899 5588,9517 5588,9134 5675,8810 5866,8479 6057,8148 6294,7910 6625,7719 6956,7528 7281,7441 7663,7441 8045,7441 8370,7528 8701,7719 9032,7910 9269,8147 9461,8478 9652,8809 9739,9134 9739,9516 9739,9898 9652,10223 9461,10554 9270,10885 9032,11122 8701,11313 L 8701,11313 Z"/>
        <path fill="none" stroke="rgb(52,101,164)" stroke-width="247" stroke-linejoin="round" d="M 8701,11313 C 8371,11505 8046,11592 7664,11592 7282,11592 6957,11505 6626,11314 6295,11123 6057,10885 5866,10554 5675,10223 5588,9899 5588,9517 5588,9134 5675,8810 5866,8479 6057,8148 6294,7910 6625,7719 6956,7528 7281,7441 7663,7441 8045,7441 8370,7528 8701,7719 9032,7910 9269,8147 9461,8478 9652,8809 9739,9134 9739,9516 9739,9898 9652,10223 9461,10554 9270,10885 9032,11122 8701,11313 L 8701,11313 Z"/>
       </g>
      </g>
      <g class="com.sun.star.drawing.EllipseShape">
       <g id="id8">
        <path fill="none" stroke="rgb(52,101,164)" stroke-width="212" stroke-linejoin="round" d="M 9370,12366 C 9107,12518 8850,12589 8548,12592 8247,12595 7991,12530 7731,12384 7471,12237 7286,12054 7138,11797 6989,11541 6923,11288 6927,10990 6930,10692 7001,10438 7155,10178 7308,9919 7498,9731 7761,9580 8024,9428 8281,9357 8583,9354 8885,9351 9140,9416 9400,9562 9660,9708 9846,9892 9994,10148 10142,10405 10208,10658 10205,10956 10201,11254 10130,11508 9976,11767 9823,12027 9633,12215 9370,12366 L 9370,12366 Z"/>
       </g>
      </g>
      <g class="com.sun.star.drawing.EllipseShape">
       <g id="id9">
        <path fill="rgb(52,101,164)" stroke="none" d="M 8132,10325 C 7983,10411 7837,10450 7665,10450 7493,10450 7347,10411 7198,10325 7049,10239 6942,10132 6856,9983 6770,9834 6731,9688 6731,9516 6731,9344 6770,9198 6856,9049 6942,8900 7049,8793 7198,8707 7347,8621 7493,8582 7665,8582 7837,8582 7983,8621 8132,8707 8281,8793 8388,8900 8474,9049 8560,9198 8599,9344 8599,9516 8599,9688 8560,9834 8474,9983 8388,10132 8281,10239 8132,10325 L 8132,10325 Z"/>
        <path fill="none" stroke="rgb(52,101,164)" d="M 8132,10325 C 7983,10411 7837,10450 7665,10450 7493,10450 7347,10411 7198,10325 7049,10239 6942,10132 6856,9983 6770,9834 6731,9688 6731,9516 6731,9344 6770,9198 6856,9049 6942,8900 7049,8793 7198,8707 7347,8621 7493,8582 7665,8582 7837,8582 7983,8621 8132,8707 8281,8793 8388,8900 8474,9049 8560,9198 8599,9344 8599,9516 8599,9688 8560,9834 8474,9983 8388,10132 8281,10239 8132,10325 L 8132,10325 Z"/>
       </g>
      </g>
     </g>
    </g>
   </g>
  </g>
 </g>
</svg>