<?xml version="1.0" encoding="UTF-8" standalone="no"?>
<svg
   xmlns:dc="http://purl.org/dc/elements/1.1/"
   xmlns:cc="http://creativecommons.org/ns#"
   xmlns:rdf="http://www.w3.org/1999/02/22-rdf-syntax-ns#"
   xmlns:svg="http://www.w3.org/2000/svg"
   xmlns="http://www.w3.org/2000/svg"
   version="1.0"
   viewBox="0 0 463.89 438.88"
   id="svg2">
  <defs
     id="defs10" />
  <g
     transform="translate(-42.339 -276.34)"
     id="layer1">
    <g
       id="g4193">
      <path
         id="rect2391"
         style="fill:#3465a4;fill-opacity:1"
         d="M 437.15,499.44 274.33,355.25 111.43,499.5 l 0,206.12 c 0,5.33 4.3,9.6 9.62,9.6 l 101.81,0 0,-130.38 c 0,-5.32 4.27,-9.62 9.6,-9.62 l 83.65,0 c 5.33,0 9.6,4.3 9.6,9.62 l 0,130.38 101.84,0 c 5.32,0 9.6,-4.27 9.6,-9.6 z" />
      <path
         id="path2399"
         style="fill:#3465a4;fill-opacity:1"
         d="m 273.39,276.34 -231.05,204.59 24.338,27.45 207.65,-183.88 207.61,183.88 24.29,-27.45 -231,-204.59 -0.9,1.04 -0.94,-1.04 z" />
      <path
         id="rect2404"
         style="fill:#3465a4;fill-opacity:1"
         d="m 111.43,305.79 58.57,0 -0.51,34.69 -58.06,52.45 0,-87.14 z" />
    </g>
  </g>
  <metadata
     id="metadata8">
    <rdf:RDF>
      <cc:Work>
        <dc:format>image/svg+xml</dc:format>
        <dc:type
           rdf:resource="http://purl.org/dc/dcmitype/StillImage" />
        <cc:license
           rdf:resource="http://creativecommons.org/publicdomain/zero/1.0/" />
        <dc:publisher>
          <cc:Agent
             rdf:about="http://openclipart.org/">
            <dc:title></dc:title>
          </cc:Agent>
        </dc:publisher>
        <dc:title></dc:title>
        <dc:date></dc:date>
        <dc:description></dc:description>
        <dc:source></dc:source>
        <dc:creator>
          <cc:Agent>
            <dc:title></dc:title>
          </cc:Agent>
        </dc:creator>
        <dc:subject>
          <rdf:Bag />
        </dc:subject>
      </cc:Work>
      <cc:License
         rdf:about="http://creativecommons.org/publicdomain/zero/1.0/">
        <cc:permits
           rdf:resource="http://creativecommons.org/ns#Reproduction" />
        <cc:permits
           rdf:resource="http://creativecommons.org/ns#Distribution" />
        <cc:permits
           rdf:resource="http://creativecommons.org/ns#DerivativeWorks" />
      </cc:License>
    </rdf:RDF>
  </metadata>
</svg>
